<svg width="152" height="82" viewBox="0 0 152 82" fill="none" xmlns="http://www.w3.org/2000/svg">
<path opacity="0.2" fill-rule="evenodd" clip-rule="evenodd" d="M0 82C27.6142 82 50 63.6437 50 41C50 18.3563 27.6142 0 0 0V82Z" fill="#828282"/>
<circle cx="151" cy="78" r="1" transform="rotate(180 151 78)" fill="#BDBDBD"/>
<circle cx="141" cy="78" r="1" transform="rotate(180 141 78)" fill="#BDBDBD"/>
<circle cx="131" cy="78" r="1" transform="rotate(180 131 78)" fill="#BDBDBD"/>
<circle cx="121" cy="78" r="1" transform="rotate(180 121 78)" fill="#BDBDBD"/>
<circle cx="111" cy="78" r="1" transform="rotate(180 111 78)" fill="#BDBDBD"/>
<circle cx="101" cy="78" r="1" transform="rotate(180 101 78)" fill="#BDBDBD"/>
<circle cx="91" cy="78" r="1" transform="rotate(180 91 78)" fill="#BDBDBD"/>
<circle cx="81" cy="78" r="1" transform="rotate(180 81 78)" fill="#BDBDBD"/>
<circle cx="71" cy="78" r="1" transform="rotate(180 71 78)" fill="#BDBDBD"/>
<circle cx="61" cy="78" r="1" transform="rotate(180 61 78)" fill="#BDBDBD"/>
<circle cx="51" cy="78" r="1" transform="rotate(180 51 78)" fill="#BDBDBD"/>
<circle cx="41" cy="78" r="1" transform="rotate(180 41 78)" fill="#BDBDBD"/>
<circle cx="31" cy="78" r="1" transform="rotate(180 31 78)" fill="#BDBDBD"/>
<circle cx="21" cy="78" r="1" transform="rotate(180 21 78)" fill="#BDBDBD"/>
<circle cx="11" cy="78" r="1" transform="rotate(180 11 78)" fill="#BDBDBD"/>
<circle cx="1" cy="78" r="1" transform="rotate(180 1 78)" fill="#BDBDBD"/>
<circle cx="131" cy="68" r="1" transform="rotate(180 131 68)" fill="#BDBDBD"/>
<circle cx="121" cy="68" r="1" transform="rotate(180 121 68)" fill="#BDBDBD"/>
<circle cx="111" cy="68" r="1" transform="rotate(180 111 68)" fill="#BDBDBD"/>
<circle cx="101" cy="68" r="1" transform="rotate(180 101 68)" fill="#BDBDBD"/>
<circle cx="91" cy="68" r="1" transform="rotate(180 91 68)" fill="#BDBDBD"/>
<circle cx="81" cy="68" r="1" transform="rotate(180 81 68)" fill="#BDBDBD"/>
<circle cx="71" cy="68" r="1" transform="rotate(180 71 68)" fill="#BDBDBD"/>
<circle cx="61" cy="68" r="1" transform="rotate(180 61 68)" fill="#BDBDBD"/>
<circle cx="51" cy="68" r="1" transform="rotate(180 51 68)" fill="#BDBDBD"/>
<circle cx="41" cy="68" r="1" transform="rotate(180 41 68)" fill="#BDBDBD"/>
<circle cx="31" cy="68" r="1" transform="rotate(180 31 68)" fill="#BDBDBD"/>
<circle cx="21" cy="68" r="1" transform="rotate(180 21 68)" fill="#BDBDBD"/>
<circle cx="11" cy="68" r="1" transform="rotate(180 11 68)" fill="#BDBDBD"/>
<circle cx="1" cy="68" r="1" transform="rotate(180 1 68)" fill="#BDBDBD"/>
<circle cx="111" cy="58" r="1" transform="rotate(180 111 58)" fill="#BDBDBD"/>
<circle cx="101" cy="58" r="1" transform="rotate(180 101 58)" fill="#BDBDBD"/>
<circle cx="91" cy="58" r="1" transform="rotate(180 91 58)" fill="#BDBDBD"/>
<circle cx="81" cy="58" r="1" transform="rotate(180 81 58)" fill="#BDBDBD"/>
<circle cx="71" cy="58" r="1" transform="rotate(180 71 58)" fill="#BDBDBD"/>
<circle cx="61" cy="58" r="1" transform="rotate(180 61 58)" fill="#BDBDBD"/>
<circle cx="51" cy="58" r="1" transform="rotate(180 51 58)" fill="#BDBDBD"/>
<circle cx="41" cy="58" r="1" transform="rotate(180 41 58)" fill="#BDBDBD"/>
<circle cx="31" cy="58" r="1" transform="rotate(180 31 58)" fill="#BDBDBD"/>
<circle cx="21" cy="58" r="1" transform="rotate(180 21 58)" fill="#BDBDBD"/>
<circle cx="11" cy="58" r="1" transform="rotate(180 11 58)" fill="#BDBDBD"/>
<circle cx="1" cy="58" r="1" transform="rotate(180 1 58)" fill="#BDBDBD"/>
<circle cx="91" cy="48" r="1" transform="rotate(180 91 48)" fill="#BDBDBD"/>
<circle cx="81" cy="48" r="1" transform="rotate(180 81 48)" fill="#BDBDBD"/>
<circle cx="71" cy="48" r="1" transform="rotate(180 71 48)" fill="#BDBDBD"/>
<circle cx="61" cy="48" r="1" transform="rotate(180 61 48)" fill="#BDBDBD"/>
<circle cx="51" cy="48" r="1" transform="rotate(180 51 48)" fill="#BDBDBD"/>
<circle cx="41" cy="48" r="1" transform="rotate(180 41 48)" fill="#BDBDBD"/>
<circle cx="31" cy="48" r="1" transform="rotate(180 31 48)" fill="#BDBDBD"/>
<circle cx="21" cy="48" r="1" transform="rotate(180 21 48)" fill="#BDBDBD"/>
<circle cx="11" cy="48" r="1" transform="rotate(180 11 48)" fill="#BDBDBD"/>
<circle cx="1" cy="48" r="1" transform="rotate(180 1 48)" fill="#BDBDBD"/>
<circle cx="71" cy="38" r="1" transform="rotate(180 71 38)" fill="#BDBDBD"/>
<circle cx="61" cy="38" r="1" transform="rotate(180 61 38)" fill="#BDBDBD"/>
<circle cx="51" cy="38" r="1" transform="rotate(180 51 38)" fill="#BDBDBD"/>
<circle cx="41" cy="38" r="1" transform="rotate(180 41 38)" fill="#BDBDBD"/>
<circle cx="31" cy="38" r="1" transform="rotate(180 31 38)" fill="#BDBDBD"/>
<circle cx="21" cy="38" r="1" transform="rotate(180 21 38)" fill="#BDBDBD"/>
<circle cx="11" cy="38" r="1" transform="rotate(180 11 38)" fill="#BDBDBD"/>
<circle cx="1" cy="38" r="1" transform="rotate(180 1 38)" fill="#BDBDBD"/>
<circle cx="51" cy="28" r="1" transform="rotate(180 51 28)" fill="#BDBDBD"/>
<circle cx="41" cy="28" r="1" transform="rotate(180 41 28)" fill="#BDBDBD"/>
<circle cx="31" cy="28" r="1" transform="rotate(180 31 28)" fill="#BDBDBD"/>
<circle cx="21" cy="28" r="1" transform="rotate(180 21 28)" fill="#BDBDBD"/>
<circle cx="11" cy="28" r="1" transform="rotate(180 11 28)" fill="#BDBDBD"/>
<circle cx="1" cy="28" r="1" transform="rotate(180 1 28)" fill="#BDBDBD"/>
<circle cx="31" cy="18" r="1" transform="rotate(180 31 18)" fill="#BDBDBD"/>
<circle cx="21" cy="18" r="1" transform="rotate(180 21 18)" fill="#BDBDBD"/>
<circle cx="11" cy="18" r="1" transform="rotate(180 11 18)" fill="#BDBDBD"/>
<circle cx="1" cy="18" r="1" transform="rotate(180 1 18)" fill="#BDBDBD"/>
<circle cx="11" cy="8" r="1" transform="rotate(180 11 8)" fill="#BDBDBD"/>
<circle cx="1" cy="8" r="1" transform="rotate(180 1 8)" fill="#BDBDBD"/>
</svg>
