<svg width="152" height="72" viewBox="0 0 152 72" fill="none" xmlns="http://www.w3.org/2000/svg">
<path opacity="0.55" d="M120 6L125.613 23.2746H143.776L129.082 33.9508L134.695 51.2254L120 40.5491L105.305 51.2254L110.918 33.9508L96.2236 23.2746H114.387L120 6Z" fill="#333333"/>
<circle cx="1" cy="1" r="1" fill="#BDBDBD"/>
<circle cx="11" cy="1" r="1" fill="#BDBDBD"/>
<circle cx="21" cy="1" r="1" fill="#BDBDBD"/>
<circle cx="31" cy="1" r="1" fill="#BDBDBD"/>
<circle cx="41" cy="1" r="1" fill="#BDBDBD"/>
<circle cx="51" cy="1" r="1" fill="#BDBDBD"/>
<circle cx="61" cy="1" r="1" fill="#BDBDBD"/>
<circle cx="71" cy="1" r="1" fill="#BDBDBD"/>
<circle cx="81" cy="1" r="1" fill="#BDBDBD"/>
<circle cx="91" cy="1" r="1" fill="#BDBDBD"/>
<circle cx="101" cy="1" r="1" fill="#BDBDBD"/>
<circle cx="111" cy="1" r="1" fill="#BDBDBD"/>
<circle cx="121" cy="1" r="1" fill="#BDBDBD"/>
<circle cx="131" cy="1" r="1" fill="#BDBDBD"/>
<circle cx="141" cy="1" r="1" fill="#BDBDBD"/>
<circle cx="151" cy="1" r="1" fill="#BDBDBD"/>
<circle cx="21" cy="11" r="1" fill="#BDBDBD"/>
<circle cx="31" cy="11" r="1" fill="#BDBDBD"/>
<circle cx="41" cy="11" r="1" fill="#BDBDBD"/>
<circle cx="51" cy="11" r="1" fill="#BDBDBD"/>
<circle cx="61" cy="11" r="1" fill="#BDBDBD"/>
<circle cx="71" cy="11" r="1" fill="#BDBDBD"/>
<circle cx="81" cy="11" r="1" fill="#BDBDBD"/>
<circle cx="91" cy="11" r="1" fill="#BDBDBD"/>
<circle cx="101" cy="11" r="1" fill="#BDBDBD"/>
<circle cx="111" cy="11" r="1" fill="#BDBDBD"/>
<circle cx="121" cy="11" r="1" fill="#BDBDBD"/>
<circle cx="131" cy="11" r="1" fill="#BDBDBD"/>
<circle cx="141" cy="11" r="1" fill="#BDBDBD"/>
<circle cx="151" cy="11" r="1" fill="#BDBDBD"/>
<circle cx="41" cy="21" r="1" fill="#BDBDBD"/>
<circle cx="51" cy="21" r="1" fill="#BDBDBD"/>
<circle cx="61" cy="21" r="1" fill="#BDBDBD"/>
<circle cx="71" cy="21" r="1" fill="#BDBDBD"/>
<circle cx="81" cy="21" r="1" fill="#BDBDBD"/>
<circle cx="91" cy="21" r="1" fill="#BDBDBD"/>
<circle cx="101" cy="21" r="1" fill="#BDBDBD"/>
<circle cx="111" cy="21" r="1" fill="#BDBDBD"/>
<circle cx="121" cy="21" r="1" fill="#BDBDBD"/>
<circle cx="131" cy="21" r="1" fill="#BDBDBD"/>
<circle cx="141" cy="21" r="1" fill="#BDBDBD"/>
<circle cx="151" cy="21" r="1" fill="#BDBDBD"/>
<circle cx="61" cy="31" r="1" fill="#BDBDBD"/>
<circle cx="71" cy="31" r="1" fill="#BDBDBD"/>
<circle cx="81" cy="31" r="1" fill="#BDBDBD"/>
<circle cx="91" cy="31" r="1" fill="#BDBDBD"/>
<circle cx="101" cy="31" r="1" fill="#BDBDBD"/>
<circle cx="111" cy="31" r="1" fill="#BDBDBD"/>
<circle cx="121" cy="31" r="1" fill="#BDBDBD"/>
<circle cx="131" cy="31" r="1" fill="#BDBDBD"/>
<circle cx="141" cy="31" r="1" fill="#BDBDBD"/>
<circle cx="151" cy="31" r="1" fill="#BDBDBD"/>
<circle cx="81" cy="41" r="1" fill="#BDBDBD"/>
<circle cx="91" cy="41" r="1" fill="#BDBDBD"/>
<circle cx="101" cy="41" r="1" fill="#BDBDBD"/>
<circle cx="111" cy="41" r="1" fill="#BDBDBD"/>
<circle cx="121" cy="41" r="1" fill="#BDBDBD"/>
<circle cx="131" cy="41" r="1" fill="#BDBDBD"/>
<circle cx="141" cy="41" r="1" fill="#BDBDBD"/>
<circle cx="151" cy="41" r="1" fill="#BDBDBD"/>
<circle cx="101" cy="51" r="1" fill="#BDBDBD"/>
<circle cx="111" cy="51" r="1" fill="#BDBDBD"/>
<circle cx="121" cy="51" r="1" fill="#BDBDBD"/>
<circle cx="131" cy="51" r="1" fill="#BDBDBD"/>
<circle cx="141" cy="51" r="1" fill="#BDBDBD"/>
<circle cx="151" cy="51" r="1" fill="#BDBDBD"/>
<circle cx="121" cy="61" r="1" fill="#BDBDBD"/>
<circle cx="131" cy="61" r="1" fill="#BDBDBD"/>
<circle cx="141" cy="61" r="1" fill="#BDBDBD"/>
<circle cx="151" cy="61" r="1" fill="#BDBDBD"/>
<circle cx="141" cy="71" r="1" fill="#BDBDBD"/>
<circle cx="151" cy="71" r="1" fill="#BDBDBD"/>
</svg>
