<svg width="24" height="24" viewBox="0 0 24 24" fill="none" xmlns="http://www.w3.org/2000/svg">
<path d="M11.085 3.1875H3.75C3.60082 3.1875 3.45774 3.24676 3.35225 3.35225C3.24676 3.45774 3.1875 3.60082 3.1875 3.75V11.085C3.1875 11.2342 3.24676 11.3773 3.35225 11.4828C3.45774 11.5883 3.60082 11.6475 3.75 11.6475H11.085C11.2339 11.6465 11.3764 11.5869 11.4817 11.4817C11.5869 11.3764 11.6465 11.2339 11.6475 11.085V3.75C11.6475 3.60082 11.5883 3.45774 11.4828 3.35225C11.3773 3.24676 11.2342 3.1875 11.085 3.1875ZM10.5225 10.5225H4.3125V4.3125H10.5225V10.5225Z" fill="black"/>
<path d="M13.834 10.7288H19.3352C19.4844 10.7288 19.6275 10.6695 19.733 10.5641C19.8385 10.4586 19.8977 10.3155 19.8977 10.1663V4.66504C19.8968 4.51616 19.8372 4.37366 19.7319 4.2684C19.6266 4.1631 19.4841 4.10355 19.3352 4.10254H13.834C13.6848 4.10254 13.5417 4.16183 13.4363 4.26731C13.3308 4.3728 13.2715 4.51586 13.2715 4.66504V10.1663C13.2715 10.3155 13.3308 10.4586 13.4363 10.5641C13.5417 10.6695 13.6848 10.7288 13.834 10.7288ZM14.3965 5.22754H18.7727V9.60379H14.3965V5.22754Z" fill="black"/>
<path d="M10.1663 13.271H4.66504C4.51586 13.271 4.3728 13.3303 4.26731 13.4358C4.16183 13.5413 4.10254 13.6843 4.10254 13.8335V19.3348C4.10355 19.4837 4.1631 19.6262 4.2684 19.7314C4.37366 19.8367 4.51616 19.8963 4.66504 19.8973H10.1663C10.3155 19.8973 10.4586 19.838 10.5641 19.7325C10.6695 19.627 10.7288 19.484 10.7288 19.3348V13.8335C10.7288 13.6843 10.6695 13.5413 10.5641 13.4358C10.4586 13.3303 10.3155 13.271 10.1663 13.271ZM9.60379 18.7723H5.22754V14.396H9.60379V18.7723Z" fill="black"/>
<path d="M20.25 12.3525H12.915C12.7662 12.3536 12.6237 12.4131 12.5184 12.5184C12.4131 12.6237 12.3536 12.7662 12.3525 12.915V20.25C12.3525 20.3993 12.4118 20.5423 12.5173 20.6478C12.6228 20.7533 12.7659 20.8125 12.915 20.8125H20.25C20.3993 20.8125 20.5423 20.7533 20.6478 20.6478C20.7533 20.5423 20.8125 20.3993 20.8125 20.25V12.915C20.8125 12.7659 20.7533 12.6228 20.6478 12.5173C20.5423 12.4118 20.3993 12.3525 20.25 12.3525ZM19.6875 19.6875H13.4775V13.4775H19.6875V19.6875Z" fill="black"/>
</svg>
