<svg width="86" height="60" viewBox="0 0 86 60" fill="none" xmlns="http://www.w3.org/2000/svg">
<path d="M0 51.0251V40.897H1.98591V51.0251H0Z" fill="white"/>
<path d="M9.04587 40.897L11.3197 46.3334L13.5886 40.897H16.071V51.0251H14.0851V44.4518L12.134 48.5825H10.5005L8.54939 44.4518V51.05H6.56348V40.9218L9.04587 40.897Z" fill="white"/>
<path d="M25.5885 44.9781C25.5885 44.9781 26.8595 44.9781 26.8595 43.9206C26.8595 42.8631 25.5885 42.8631 25.5885 42.8631H20.6734V40.8772H25.8666C25.8666 40.8772 28.8454 40.9467 28.8454 43.9007C28.8454 46.8548 25.8666 46.9243 25.8666 46.9243H22.6345V51.0054H20.6486V44.9781H25.5885Z" fill="white"/>
<path d="M40.5076 40.897V42.8829H32.6235V40.897H40.5076ZM40.5076 44.978V46.9639H32.6235V44.978H40.5076ZM40.5076 49.0591V51.045H32.6235V49.0591H40.5076Z" fill="white"/>
<path d="M51.3061 51.0252L49.2606 46.9342H47.086V51.0153H45.125V45.4895V44.993H50.0351C50.0351 44.993 51.3061 44.993 51.3061 43.9355C51.3061 42.878 50.0351 42.878 50.0351 42.878H45.12V40.8921H50.3132C50.3132 40.8921 53.292 40.9616 53.292 43.9156C53.3324 44.5368 53.1616 45.1535 52.8074 45.6654C52.4533 46.1773 51.9364 46.5545 51.3409 46.7356L53.4658 51.0202L51.3061 51.0252Z" fill="white"/>
<path d="M57.7653 51.0251V40.897H59.7512V51.0251H57.7653Z" fill="white"/>
<path d="M65.982 40.897V47.2122C65.982 47.7771 66.2064 48.3188 66.6059 48.7182C67.0053 49.1177 67.5471 49.3421 68.1119 49.3421C68.6768 49.3421 69.2186 49.1177 69.618 48.7182C70.0174 48.3188 70.2418 47.7771 70.2418 47.2122V40.897H72.2029V47.664C72.2029 47.664 72.1285 51.2734 68.1119 51.2734C64.0954 51.2734 64.016 47.664 64.016 47.664V40.897H65.982Z" fill="white"/>
<path d="M78.9649 40.897L81.2388 46.3334L83.5176 40.897H86V51.0251H84.0141V44.4518L82.0629 48.5825H80.4295L78.4684 44.4518V51.05H76.5073V40.9218L78.9649 40.897Z" fill="white"/>
<path d="M27.6787 59.5795V55.4587H28.2646V59.0632H30.4937V59.5596L27.6787 59.5795Z" fill="white"/>
<path d="M32.9513 59.6243C32.6527 59.6262 32.3563 59.5723 32.0775 59.4654C31.82 59.368 31.5851 59.2192 31.387 59.028C31.189 58.8368 31.032 58.6072 30.9257 58.3533C30.8142 58.0894 30.7568 57.8058 30.7568 57.5192C30.7568 57.2327 30.8142 56.9491 30.9257 56.6852C31.0302 56.4327 31.1857 56.2045 31.3824 56.0149C31.5819 55.8222 31.8184 55.6719 32.0775 55.573C32.3554 55.4629 32.6524 55.4089 32.9513 55.4142C33.2496 55.4102 33.5461 55.4624 33.8251 55.5681C34.0822 55.6682 34.3167 55.8184 34.5152 56.0099C34.714 56.1978 34.8698 56.4265 34.972 56.6802C35.1905 57.2182 35.1905 57.8203 34.972 58.3583C34.8686 58.6114 34.713 58.8398 34.5152 59.0285C34.3167 59.2201 34.0822 59.3703 33.8251 59.4704C33.5461 59.5761 33.2496 59.6283 32.9513 59.6243ZM32.9513 59.103C33.1689 59.1052 33.3848 59.0647 33.5868 58.9838C33.7726 58.9068 33.9413 58.7938 34.0833 58.6512C34.2303 58.5022 34.346 58.3253 34.4236 58.1309C34.5012 57.9365 34.5391 57.7285 34.5351 57.5192C34.5377 57.3048 34.4972 57.0921 34.4159 56.8937C34.336 56.7094 34.2233 56.5412 34.0833 56.3972C33.9413 56.2546 33.7726 56.1416 33.5868 56.0646C33.178 55.9055 32.7245 55.9055 32.3158 56.0646C32.1302 56.142 31.9616 56.255 31.8193 56.3972C31.6714 56.5458 31.5548 56.7225 31.4763 56.9169C31.3979 57.1114 31.3592 57.3195 31.3626 57.5292C31.3603 57.7451 31.4008 57.9594 31.4817 58.1597C31.5612 58.3454 31.6759 58.5139 31.8193 58.6562C31.9616 58.7983 32.1302 58.9113 32.3158 58.9888C32.5181 59.068 32.734 59.1068 32.9513 59.103Z" fill="white"/>
<path d="M37.8962 59.6244C37.5963 59.6284 37.2982 59.5762 37.0175 59.4705C36.6248 59.319 36.2881 59.0507 36.0528 58.7018C35.8175 58.3529 35.695 57.9401 35.7018 57.5193C35.6985 57.2297 35.7542 56.9425 35.8656 56.6753C35.9722 56.4242 36.1294 56.1977 36.3274 56.01C36.5277 55.8184 36.7639 55.6682 37.0224 55.5681C37.3048 55.462 37.6046 55.4098 37.9062 55.4142C38.2116 55.4086 38.5151 55.4625 38.7998 55.5731C39.0676 55.6785 39.3048 55.8492 39.4899 56.0696L39.1225 56.432C38.9646 56.276 38.7773 56.1528 38.5715 56.0696C38.3667 55.9928 38.1497 55.9541 37.931 55.9554C37.7069 55.9527 37.4844 55.9932 37.2756 56.0745C37.0809 56.1491 36.9022 56.2603 36.7494 56.4022C36.6049 56.5446 36.4887 56.7131 36.4068 56.8987C36.3264 57.1008 36.2859 57.3166 36.2877 57.5342C36.2835 57.7444 36.3223 57.9532 36.4017 58.1478C36.4811 58.3425 36.5994 58.5188 36.7494 58.6662C36.8923 58.8074 37.0608 58.9203 37.2459 58.9988C37.4546 59.0802 37.6771 59.1206 37.9012 59.118C38.1157 59.1185 38.3288 59.0832 38.5317 59.0137C38.7406 58.94 38.9318 58.8233 39.0928 58.6711L39.4304 59.118C39.2193 59.292 38.9765 59.4235 38.7154 59.5052C38.4501 59.5867 38.1738 59.6269 37.8962 59.6244ZM38.8892 59.0236V57.4945H39.4552V59.1031L38.8892 59.0236Z" fill="white"/>
<path d="M40.5771 59.5795V55.4587H41.163V59.5795H40.5771Z" fill="white"/>
<path d="M43.6008 59.6241C43.2954 59.6247 42.992 59.5761 42.7021 59.4801C42.4516 59.4057 42.2197 59.2787 42.022 59.1078L42.2404 58.646C42.4179 58.7963 42.6215 58.9124 42.8412 58.9886C43.0844 59.078 43.3416 59.1234 43.6008 59.1227C43.7975 59.1296 43.994 59.1027 44.1817 59.0432C44.3117 58.9996 44.4269 58.9205 44.5143 58.8148C44.5841 58.72 44.6207 58.6049 44.6186 58.4872C44.6214 58.4242 44.6105 58.3613 44.5865 58.303C44.5625 58.2446 44.526 58.1923 44.4795 58.1496C44.3775 58.0542 44.2553 57.9829 44.1221 57.941C43.9599 57.8835 43.7941 57.8371 43.6256 57.802C43.4469 57.7623 43.2731 57.7176 43.0944 57.663C42.9214 57.615 42.7548 57.5467 42.5979 57.4595C42.4529 57.3801 42.33 57.2657 42.2404 57.1268C42.1442 56.9649 42.0959 56.7789 42.1014 56.5906C42.1015 56.3834 42.16 56.1803 42.2702 56.0048C42.3923 55.8174 42.5642 55.6678 42.7667 55.5728C43.0485 55.4583 43.3513 55.4042 43.6554 55.414C43.8952 55.4132 44.134 55.4449 44.3654 55.5083C44.585 55.56 44.7935 55.6508 44.981 55.7764L44.7874 56.248C44.615 56.1333 44.4257 56.0462 44.2263 55.9899C44.04 55.9402 43.8482 55.9135 43.6554 55.9104C43.4612 55.9042 43.2675 55.9345 43.0844 55.9998C42.9542 56.0455 42.8403 56.1283 42.7568 56.2381C42.6906 56.3345 42.6559 56.4489 42.6575 56.5658C42.6547 56.6298 42.6653 56.6937 42.6883 56.7535C42.7114 56.8133 42.7465 56.8677 42.7915 56.9133C42.8966 57.006 43.0201 57.0754 43.1539 57.1169C43.3159 57.1751 43.4818 57.2216 43.6504 57.2559C43.8242 57.2956 44.0029 57.3453 44.1817 57.3949C44.3541 57.4422 44.5206 57.5089 44.6781 57.5935C44.8231 57.6729 44.946 57.7872 45.0356 57.9261C45.1312 58.0845 45.1778 58.2676 45.1696 58.4524C45.1711 58.6584 45.1125 58.8602 45.0008 59.0333C44.8713 59.2243 44.6882 59.3729 44.4746 59.4603C44.1979 59.575 43.9003 59.6308 43.6008 59.6241Z" fill="white"/>
<path d="M46.8129 59.5793V55.9699H45.3979V55.4734H48.8038V55.9699H47.3938V59.5793H46.8129Z" fill="white"/>
<path d="M49.4492 59.5795V55.4587H50.0351V59.5795H49.4492Z" fill="white"/>
<path d="M53.1132 59.6242C52.8165 59.6282 52.5217 59.576 52.2444 59.4703C51.988 59.3689 51.7536 59.2189 51.5543 59.0284C51.3612 58.8367 51.2077 58.609 51.1025 58.3582C50.9871 58.0937 50.9295 57.8076 50.9337 57.5191C50.9296 57.229 50.9871 56.9413 51.1025 56.6751C51.2076 56.4244 51.3631 56.198 51.5592 56.0098C51.7586 55.8193 51.9929 55.6693 52.2494 55.5679C52.5266 55.4622 52.8215 55.41 53.1182 55.414C53.4185 55.4116 53.7165 55.4655 53.997 55.5729C54.2614 55.6819 54.4962 55.852 54.6821 56.0694L54.2998 56.4417C54.1522 56.2801 53.9709 56.153 53.7686 56.0694C53.5699 55.989 53.3573 55.9485 53.143 55.9502C52.9222 55.9481 52.7031 55.9886 52.4976 56.0694C52.3134 56.1473 52.1452 56.2584 52.0011 56.3971C51.856 56.5379 51.7412 56.7068 51.6635 56.8935C51.5831 57.0957 51.5426 57.3115 51.5444 57.529C51.5421 57.745 51.5826 57.9593 51.6635 58.1596C51.7422 58.3457 51.857 58.5144 52.0011 58.656C52.1452 58.7947 52.3134 58.9058 52.4976 58.9837C52.7031 59.0645 52.9222 59.105 53.143 59.1029C53.3577 59.103 53.5702 59.0608 53.7686 58.9788C53.9717 58.8967 54.1534 58.7693 54.2998 58.6064L54.6821 58.9788C54.4947 59.1945 54.2603 59.3644 53.997 59.4752C53.7149 59.582 53.4147 59.6326 53.1132 59.6242Z" fill="white"/>
<path d="M56.7077 59.6243C56.4024 59.6245 56.0991 59.5758 55.8091 59.4803C55.5595 59.4071 55.329 59.2799 55.1339 59.1079L55.3474 58.6462C55.5248 58.7964 55.7285 58.9126 55.9481 58.9888C56.1914 59.0782 56.4486 59.1235 56.7077 59.1228C56.9045 59.1297 57.101 59.1029 57.2886 59.0434C57.4186 58.9998 57.5339 58.9207 57.6213 58.815C57.6911 58.7202 57.7277 58.605 57.7255 58.4873C57.7284 58.4243 57.7175 58.3614 57.6934 58.3031C57.6694 58.2448 57.6329 58.1924 57.5865 58.1497C57.4852 58.0533 57.3628 57.9819 57.2291 57.9412C57.0669 57.8837 56.901 57.8372 56.7326 57.8022C56.5588 57.7625 56.3801 57.7178 56.2013 57.6632C56.0284 57.6151 55.8617 57.5468 55.7049 57.4596C55.5599 57.3802 55.437 57.2659 55.3474 57.127C55.2529 56.9645 55.2064 56.7786 55.2133 56.5908C55.2117 56.384 55.2685 56.1809 55.3772 56.0049C55.506 55.814 55.6869 55.664 55.8985 55.573C56.1805 55.4589 56.4831 55.4048 56.7872 55.4141C57.0286 55.4137 57.269 55.4454 57.5021 55.5085C57.7199 55.5611 57.9266 55.6519 58.1128 55.7765L57.9192 56.2482C57.7474 56.1323 57.5579 56.0451 57.3581 55.99C57.1719 55.94 56.9801 55.9133 56.7872 55.9106C56.593 55.9047 56.3993 55.935 56.2162 56C56.0867 56.0443 55.974 56.1275 55.8935 56.2383C55.8237 56.3331 55.7871 56.4482 55.7893 56.5659C55.7863 56.6304 55.7971 56.6948 55.8211 56.7548C55.8451 56.8147 55.8816 56.8689 55.9283 56.9135C56.0312 57.0065 56.1532 57.076 56.2857 57.117C56.4479 57.1746 56.6138 57.221 56.7822 57.2561C56.956 57.2958 57.1347 57.3454 57.3135 57.3951C57.4862 57.4415 57.6528 57.5081 57.8099 57.5937C57.9549 57.6731 58.0778 57.7874 58.1674 57.9263C58.263 58.0847 58.3096 58.2678 58.3014 58.4526C58.3029 58.6585 58.2443 58.8604 58.1326 59.0334C58.0042 59.2255 57.8208 59.3744 57.6064 59.4604C57.322 59.5786 57.0156 59.6345 56.7077 59.6243Z" fill="white"/>
<path fill-rule="evenodd" clip-rule="evenodd" d="M48.1286 0.170816C27.8772 9.91669 29.2624 9.10743 29.2624 9.5344C29.2276 14.7276 29.0141 14.9212 29.8631 15.3333C41.0686 20.7449 39.748 20.6456 40.0856 19.9009L30.0717 14.9361L48.5208 6.05905L66.8558 15.1595C55.9332 20.4222 56.9262 19.7023 57.1992 20.3179C66.8706 15.6659 67.7047 15.4524 67.7047 14.8567C67.7444 9.46986 67.8437 9.56915 67.4813 9.39539C44.3454 -2.03355 49.6131 0.170816 48.1286 0.170816Z" fill="white"/>
<path fill-rule="evenodd" clip-rule="evenodd" d="M56.3403 25.2282C56.375 19.9953 56.5935 19.8612 55.7396 19.4293C46.3511 14.6532 47.4583 15.1645 47.3391 15.7653L55.531 19.8463L37.0819 28.7234C37.0819 28.7234 37.5784 28.9617 18.7569 19.5981C27.7928 15.2539 26.914 15.8993 26.8346 15.1943C18.9654 18.9775 17.898 19.3002 17.898 19.9208C17.8632 25.2679 17.754 25.1984 18.1214 25.3821L36.6003 34.5769C37.1911 34.8698 37.067 34.7754 37.4691 34.5769C37.5039 34.5917 56.3403 25.7246 56.3403 25.2282Z" fill="white"/>
</svg>
