<svg width="97" height="68" viewBox="0 0 97 68" fill="none" xmlns="http://www.w3.org/2000/svg">
<path d="M0 57.5516V46.1279H2.23993V57.5516H0Z" fill="black"/>
<path d="M10.2025 46.1279L12.7672 52.2597L15.3263 46.1279H18.1262V57.5516H15.8863V50.1374L13.6912 54.7965H11.8432L9.64251 50.1374V57.5796H7.40259V46.1559L10.2025 46.1279Z" fill="black"/>
<path d="M28.8614 50.7309C28.8614 50.7309 30.2949 50.7309 30.2949 49.5382C30.2949 48.3454 28.8614 48.3454 28.8614 48.3454H23.3176V46.1055H29.175C29.175 46.1055 32.5349 46.1839 32.5349 49.5158C32.5349 52.8476 29.175 52.926 29.175 52.926H25.5295V57.5291H23.2896V50.7309H28.8614Z" fill="black"/>
<path d="M45.6886 46.1279V48.3679H36.7961V46.1279H45.6886ZM45.6886 50.731V52.9709H36.7961V50.731H45.6886ZM45.6886 55.334V57.574H36.7961V55.334H45.6886Z" fill="black"/>
<path d="M57.8687 57.5515L55.5616 52.9373H53.1089V57.5403H50.897V51.3077V50.7478H56.4352C56.4352 50.7478 57.8687 50.7478 57.8687 49.555C57.8687 48.3622 56.4352 48.3622 56.4352 48.3622H50.8914V46.1223H56.7488C56.7488 46.1223 60.1087 46.2007 60.1087 49.5326C60.1542 50.2333 59.9616 50.9287 59.5621 51.5061C59.1626 52.0835 58.5797 52.5089 57.9079 52.7133L60.3046 57.5459L57.8687 57.5515Z" fill="black"/>
<path d="M65.1538 57.5516V46.1279H67.3937V57.5516H65.1538Z" fill="black"/>
<path d="M74.4219 46.1279V53.2509C74.4219 53.888 74.675 54.4991 75.1255 54.9496C75.576 55.4001 76.1871 55.6532 76.8242 55.6532C77.4613 55.6532 78.0724 55.4001 78.5229 54.9496C78.9734 54.4991 79.2265 53.888 79.2265 53.2509V46.1279H81.4384V53.7605C81.4384 53.7605 81.3544 57.8316 76.8242 57.8316C72.2939 57.8316 72.2043 53.7605 72.2043 53.7605V46.1279H74.4219Z" fill="black"/>
<path d="M89.0651 46.1279L91.6298 52.2597L94.2002 46.1279H97.0001V57.5516H94.7601V50.1374L92.5594 54.7965H90.7171L88.5051 50.1374V57.5796H86.2932V46.1559L89.0651 46.1279Z" fill="black"/>
<path d="M31.2134 67.2001V62.5522H31.8798V66.6177H34.3941V67.1777L31.2134 67.2001Z" fill="#FF6200"/>
<path d="M37.1661 67.2505C36.8292 67.2527 36.495 67.1919 36.1805 67.0713C35.8901 66.9615 35.6251 66.7936 35.4017 66.5779C35.1784 66.3623 35.0013 66.1033 34.8813 65.8169C34.7557 65.5192 34.6909 65.1993 34.6909 64.8762C34.6909 64.553 34.7557 64.2331 34.8813 63.9354C34.9992 63.6507 35.1746 63.3933 35.3965 63.1794C35.6215 62.9621 35.8882 62.7926 36.1805 62.681C36.494 62.5568 36.8289 62.4959 37.1661 62.5019C37.5026 62.4974 37.8369 62.5563 38.1516 62.6755C38.4426 62.7896 38.7088 62.9588 38.9356 63.1738C39.1564 63.3875 39.33 63.645 39.4452 63.9298C39.6917 64.5366 39.6917 65.2157 39.4452 65.8226C39.3289 66.1068 39.1555 66.3641 38.9356 66.5785C38.7088 66.7935 38.4426 66.9627 38.1516 67.0769C37.8369 67.1961 37.5026 67.255 37.1661 67.2505ZM37.1661 66.6625C37.4115 66.665 37.655 66.6194 37.8828 66.5281C38.0924 66.4412 38.2827 66.3137 38.4428 66.1529C38.6086 65.9849 38.7391 65.7853 38.8267 65.5661C38.9142 65.3468 38.9569 65.1122 38.9524 64.8762C38.9554 64.6344 38.9097 64.3944 38.818 64.1706C38.7279 63.9628 38.6008 63.773 38.4428 63.6106C38.2827 63.4498 38.0924 63.3223 37.8828 63.2354C37.4218 63.0561 36.9103 63.0561 36.4493 63.2354C36.24 63.3228 36.0497 63.4503 35.8893 63.6106C35.7225 63.7782 35.5909 63.9776 35.5025 64.1968C35.414 64.4161 35.3703 64.6509 35.3741 64.8874C35.3716 65.131 35.4173 65.3727 35.5085 65.5986C35.5982 65.808 35.7275 65.9981 35.8893 66.1585C36.0497 66.3189 36.24 66.4463 36.4493 66.5337C36.6775 66.6231 36.921 66.6668 37.1661 66.6625Z" fill="#FF6200"/>
<path d="M42.7432 67.2506C42.4049 67.2551 42.0687 67.1962 41.7521 67.077C41.3092 66.9062 40.9294 66.6036 40.664 66.21C40.3986 65.8164 40.2604 65.3509 40.2681 64.8762C40.2644 64.5497 40.3273 64.2257 40.4529 63.9243C40.5731 63.641 40.7504 63.3856 40.9737 63.1739C41.1997 62.9578 41.4661 62.7884 41.7577 62.6755C42.0762 62.5559 42.4143 62.497 42.7544 62.5019C43.0989 62.4955 43.4413 62.5564 43.7624 62.6811C44.0645 62.8 44.332 62.9925 44.5408 63.2411L44.1264 63.6499C43.9482 63.474 43.7369 63.335 43.5048 63.2411C43.2739 63.1545 43.0291 63.1108 42.7824 63.1123C42.5297 63.1093 42.2788 63.1549 42.0433 63.2467C41.8236 63.3307 41.6221 63.4562 41.4497 63.6163C41.2867 63.7769 41.1556 63.9669 41.0633 64.1763C40.9726 64.4043 40.927 64.6477 40.9289 64.893C40.9242 65.1301 40.968 65.3656 41.0576 65.5852C41.1471 65.8047 41.2805 66.0036 41.4497 66.1698C41.6109 66.3292 41.801 66.4565 42.0097 66.545C42.2452 66.6368 42.4961 66.6824 42.7488 66.6794C42.9908 66.68 43.2311 66.6402 43.46 66.5618C43.6956 66.4787 43.9112 66.347 44.0928 66.1754L44.4736 66.6794C44.2348 66.8746 43.9612 67.0228 43.6672 67.1162C43.3679 67.2081 43.0563 67.2534 42.7432 67.2506ZM43.8632 66.573V64.8482H44.5016V66.6626L43.8632 66.573Z" fill="#FF6200"/>
<path d="M45.7673 67.2001V62.5522H46.4281V67.2001H45.7673Z" fill="#FF6200"/>
<path d="M49.1777 67.2504C48.8333 67.2511 48.4911 67.1963 48.1641 67.088C47.8815 67.004 47.62 66.8609 47.397 66.668L47.6434 66.1472C47.8435 66.3167 48.0732 66.4477 48.3209 66.5336C48.5953 66.6344 48.8854 66.6856 49.1777 66.6848C49.3996 66.6926 49.6212 66.6623 49.8329 66.5952C49.9795 66.5461 50.1095 66.4568 50.2081 66.3376C50.2868 66.2307 50.3281 66.1008 50.3257 65.968C50.3289 65.897 50.3166 65.8261 50.2895 65.7603C50.2624 65.6945 50.2212 65.6354 50.1689 65.5873C50.0538 65.4797 49.916 65.3993 49.7657 65.3521C49.5828 65.2872 49.3957 65.2348 49.2057 65.1953C49.0041 65.1505 48.8081 65.1001 48.6065 65.0385C48.412 64.9829 48.2242 64.9059 48.0466 64.8089C47.886 64.7173 47.7497 64.5887 47.649 64.4337C47.5404 64.2511 47.486 64.0413 47.4922 63.8289C47.4922 63.5951 47.5582 63.3661 47.6826 63.1681C47.8202 62.9568 48.0142 62.7881 48.2425 62.6809C48.5604 62.5518 48.9019 62.4907 49.2449 62.5018C49.5154 62.5009 49.7848 62.5367 50.0457 62.6082C50.2934 62.6665 50.5286 62.7689 50.7401 62.9105L50.5217 63.4425C50.3272 63.3131 50.1137 63.2148 49.8889 63.1513C49.6787 63.0953 49.4624 63.0652 49.2449 63.0617C49.0258 63.0546 48.8074 63.0888 48.6009 63.1625C48.4541 63.214 48.3256 63.3075 48.2313 63.4313C48.1568 63.54 48.1176 63.6691 48.1194 63.8009C48.1163 63.8731 48.1281 63.9452 48.1541 64.0126C48.1802 64.0801 48.2198 64.1415 48.2705 64.1929C48.3891 64.2974 48.5284 64.3757 48.6793 64.4225C48.862 64.4882 49.0491 64.5406 49.2393 64.5793C49.4353 64.6241 49.6369 64.6801 49.8385 64.7361C50.033 64.7895 50.2208 64.8646 50.3985 64.9601C50.562 65.0496 50.7006 65.1786 50.8017 65.3353C50.9095 65.5139 50.9621 65.7204 50.9529 65.9289C50.9545 66.1611 50.8884 66.3888 50.7625 66.584C50.6164 66.7995 50.4099 66.9671 50.1689 67.0656C49.855 67.1958 49.5174 67.2588 49.1777 67.2504Z" fill="#FF6200"/>
<path d="M52.8008 67.2001V63.1291H51.2048V62.5691H55.0463V63.1291H53.456V67.2001H52.8008Z" fill="#FF6200"/>
<path d="M55.7739 67.2001V62.5522H56.4347V67.2001H55.7739Z" fill="#FF6200"/>
<path d="M59.907 67.2506C59.5723 67.2552 59.2398 67.1963 58.9271 67.077C58.6379 66.9627 58.3735 66.7934 58.1487 66.5786C57.9309 66.3625 57.7578 66.1056 57.6391 65.8227C57.509 65.5244 57.4441 65.2017 57.4487 64.8763C57.4441 64.5491 57.509 64.2246 57.6391 63.9243C57.7577 63.6416 57.933 63.3862 58.1543 63.1739C58.3791 62.9591 58.6435 62.7899 58.9327 62.6755C59.2454 62.5563 59.578 62.4974 59.9126 62.502C60.2513 62.4992 60.5875 62.56 60.9038 62.6811C61.2021 62.804 61.4669 62.9959 61.6766 63.2411L61.2454 63.6611C61.079 63.4788 60.8744 63.3354 60.6462 63.2411C60.4221 63.1505 60.1824 63.1048 59.9406 63.1067C59.6916 63.1043 59.4444 63.15 59.2127 63.2411C59.005 63.329 58.8152 63.4543 58.6527 63.6107C58.4891 63.7696 58.3595 63.9601 58.2719 64.1707C58.1812 64.3987 58.1356 64.6421 58.1375 64.8875C58.135 65.1311 58.1807 65.3728 58.2719 65.5987C58.3607 65.8086 58.4901 65.9989 58.6527 66.1586C58.8152 66.3151 59.005 66.4403 59.2127 66.5282C59.4444 66.6194 59.6916 66.665 59.9406 66.6626C60.1828 66.6628 60.4225 66.6152 60.6462 66.5226C60.8753 66.43 61.0802 66.2864 61.2454 66.1026L61.6766 66.5226C61.4652 66.766 61.2009 66.9576 60.9038 67.0826C60.5857 67.203 60.2471 67.2601 59.907 67.2506Z" fill="#FF6200"/>
<path d="M63.9609 67.2503C63.6166 67.2505 63.2744 67.1957 62.9474 67.0879C62.6658 67.0053 62.4059 66.8619 62.1858 66.6679L62.4266 66.1471C62.6267 66.3166 62.8564 66.4476 63.1042 66.5335C63.3785 66.6343 63.6686 66.6855 63.9609 66.6847C64.1828 66.6925 64.4044 66.6622 64.6161 66.5951C64.7628 66.546 64.8927 66.4567 64.9913 66.3375C65.07 66.2306 65.1113 66.1007 65.1089 65.9679C65.1121 65.8969 65.0998 65.8259 65.0727 65.7602C65.0456 65.6944 65.0045 65.6353 64.9521 65.5872C64.8378 65.4785 64.6998 65.3979 64.5489 65.352C64.366 65.2871 64.1789 65.2347 63.9889 65.1952C63.7929 65.1504 63.5913 65.1 63.3897 65.0384C63.1947 64.9842 63.0067 64.9071 62.8298 64.8088C62.6662 64.7192 62.5276 64.5903 62.4266 64.4336C62.32 64.2504 62.2675 64.0406 62.2754 63.8288C62.2735 63.5955 62.3375 63.3665 62.4602 63.168C62.6054 62.9526 62.8095 62.7835 63.0482 62.6808C63.3662 62.5521 63.7076 62.4911 64.0505 62.5017C64.3229 62.5012 64.594 62.537 64.8569 62.6081C65.1025 62.6675 65.3357 62.7699 65.5457 62.9104L65.3273 63.4424C65.1335 63.3117 64.9198 63.2134 64.6945 63.1512C64.4844 63.0948 64.2681 63.0647 64.0505 63.0616C63.8315 63.0549 63.6131 63.0891 63.4065 63.1624C63.2605 63.2124 63.1333 63.3063 63.0426 63.4312C62.9639 63.5382 62.9225 63.668 62.925 63.8008C62.9216 63.8736 62.9338 63.9462 62.9609 64.0138C62.9879 64.0814 63.0291 64.1425 63.0818 64.1928C63.1978 64.2978 63.3354 64.3761 63.4849 64.4224C63.6678 64.4873 63.8549 64.5397 64.0449 64.5792C64.2409 64.624 64.4425 64.68 64.6441 64.736C64.8389 64.7883 65.0269 64.8635 65.2041 64.96C65.3676 65.0495 65.5062 65.1785 65.6073 65.3352C65.7151 65.5138 65.7677 65.7203 65.7585 65.9287C65.7602 66.161 65.694 66.3887 65.5681 66.5839C65.4232 66.8006 65.2164 66.9684 64.9745 67.0655C64.6537 67.1988 64.3081 67.2618 63.9609 67.2503Z" fill="#FF6200"/>
<path fill-rule="evenodd" clip-rule="evenodd" d="M54.2849 0.192664C31.4433 11.1851 33.0056 10.2723 33.0056 10.7539C32.9664 16.6113 32.7256 16.8297 33.6832 17.2945C46.322 23.3983 44.8324 23.2863 45.2132 22.4463L33.9184 16.8465L54.7273 6.83405L75.4074 17.0985C63.0878 23.0343 64.2078 22.2223 64.5158 22.9167C75.4242 17.6697 76.365 17.4289 76.365 16.7569C76.4098 10.6811 76.5218 10.7931 76.113 10.5971C50.0179 -2.29365 55.9593 0.192664 54.2849 0.192664Z" fill="#FF6200"/>
<path fill-rule="evenodd" clip-rule="evenodd" d="M63.5466 28.4549C63.5858 22.5527 63.8322 22.4015 62.869 21.9143C52.2797 16.5273 53.5285 17.1041 53.3941 17.7817L62.6338 22.3847L41.8249 32.3972C41.8249 32.3972 42.3849 32.666 21.156 22.1047C31.3476 17.2049 30.3565 17.9329 30.2669 17.1377C21.3912 21.4048 20.1872 21.7687 20.1872 22.4687C20.148 28.4997 20.0248 28.4213 20.4392 28.6285L41.2817 38.9994C41.9481 39.3298 41.8081 39.2234 42.2617 38.9994C42.3009 39.0162 63.5466 29.0149 63.5466 28.4549Z" fill="black"/>
</svg>
