<svg width="205" height="159" viewBox="0 0 205 159" fill="none" xmlns="http://www.w3.org/2000/svg">
<g clip-path="url(#clip0_546_7463)">
<path d="M3.15152 146.44C4.49033 151.085 8.39948 154.336 12.4772 157.098C13.0466 157.483 13.6161 157.86 14.1859 158.228C14.1897 158.23 14.1937 158.234 14.1976 158.235C14.225 158.253 14.2525 158.27 14.278 158.288C14.3956 158.364 14.5132 158.44 14.6298 158.515L14.5658 158.544C14.5658 158.544 14.5029 158.577 14.5717 158.549C14.5922 158.54 14.6136 158.533 14.6341 158.524C17.003 157.569 19.414 156.543 21.2294 154.753C23.1126 152.894 24.2132 149.979 23.1934 147.538C23.0594 147.218 22.8901 146.914 22.6886 146.632C22.6059 146.513 22.5168 146.4 22.4241 146.289C21.8616 145.602 21.1264 145.078 20.2941 144.77C19.4618 144.462 18.5624 144.381 17.6884 144.535C16.8145 144.69 15.9975 145.074 15.3214 145.649C14.6454 146.225 14.1347 146.969 13.8419 147.807C13.5423 145.018 15.8423 142.681 18.0558 140.957C20.2702 139.234 22.7863 137.358 23.2144 134.584C23.4535 133.041 22.9168 131.545 21.9392 130.344C21.9089 130.308 21.8787 130.271 21.8475 130.236C20.6575 128.838 18.9837 127.94 17.1604 127.721C13.7649 127.368 10.4667 129.166 7.99997 131.527C4.02973 135.325 1.62956 141.159 3.15152 146.44Z" fill="#F1F1F1"/>
<path d="M9.5339 140.365C8.88224 141.379 8.38192 142.483 8.04873 143.641C7.76696 144.676 7.64155 145.748 7.67666 146.82C7.76756 149.027 8.38703 151.179 9.48297 153.096C10.3085 154.551 11.3146 155.895 12.4773 157.098C13.0467 157.483 13.6162 157.86 14.1859 158.228C14.1898 158.23 14.1938 158.234 14.1977 158.235C14.2251 158.253 14.2525 158.271 14.2781 158.288C14.3957 158.364 14.5133 158.44 14.6299 158.515C14.6299 158.515 14.503 158.577 14.5718 158.549C14.5923 158.54 14.6137 158.533 14.6341 158.524C14.4218 156.783 14.6298 155.017 15.2407 153.373C15.8516 151.73 16.8475 150.256 18.1451 149.077C19.4458 147.915 21.0027 147.077 22.6887 146.632C22.606 146.513 22.5169 146.4 22.4242 146.289C21.773 146.471 21.1392 146.711 20.5303 147.005C18.3536 148.051 16.5712 149.769 15.4471 151.906C14.4384 153.847 14.0042 156.035 14.1956 158.214C14.0983 158.125 14.0009 158.035 13.9064 157.946C12.1062 156.268 10.5074 154.341 9.42531 152.118C8.48656 150.235 8.02518 148.151 8.08181 146.048C8.17012 143.755 9.08377 141.63 10.4066 139.781C11.8565 137.809 13.5693 136.043 15.4974 134.535C17.4406 132.978 19.5668 131.666 21.8288 130.626C21.8799 130.602 21.9198 130.56 21.9403 130.507C21.9609 130.455 21.9605 130.396 21.9393 130.344C21.9242 130.298 21.8912 130.259 21.8476 130.236C21.8251 130.226 21.8008 130.222 21.7764 130.223C21.7519 130.224 21.7281 130.23 21.7065 130.242C21.4272 130.371 21.1499 130.501 20.8748 130.637C18.5833 131.769 16.4413 133.182 14.4982 134.843C12.6213 136.443 10.8542 138.272 9.5339 140.365Z" fill="white"/>
<path d="M63.1402 155.022H66.6978L68.3901 141.3L63.1396 141.3L63.1402 155.022Z" fill="#FFB7B7"/>
<path d="M62.2329 153.86L69.2388 153.86H69.2391C70.4232 153.86 71.5588 154.33 72.396 155.168C73.2333 156.005 73.7037 157.14 73.7038 158.325V158.47L62.2331 158.47L62.2329 153.86Z" fill="#2F2E41"/>
<path d="M43.8789 155.022H47.4366L49.1289 141.3L43.8784 141.3L43.8789 155.022Z" fill="#FFB7B7"/>
<path d="M42.9717 153.86L49.9776 153.86H49.9779C51.162 153.86 52.2975 154.33 53.1348 155.168C53.9721 156.005 54.4425 157.14 54.4426 158.325V158.47L42.9719 158.47L42.9717 153.86Z" fill="#2F2E41"/>
<path d="M42.4294 92.8318V129.062L43.3466 152.45H50.9134L53.436 108.424L58.4805 126.539L61.6907 151.991L70.8626 151.533L64.6717 92.8318H42.4294Z" fill="#0D0D0D"/>
<path d="M51.2256 60.2711C54.265 60.2711 56.7289 57.8072 56.7289 54.7679C56.7289 51.7285 54.265 49.2646 51.2256 49.2646C48.1863 49.2646 45.7224 51.7285 45.7224 54.7679C45.7224 57.8072 48.1863 60.2711 51.2256 60.2711Z" fill="#FFB8B8"/>
<path d="M48.9397 61.7051L47.4745 63.2521L46.0986 94.2079L62.3792 93.7494L58.481 66.6919L55.0416 63.3958L53.2963 61.7051H48.9397Z" fill="#EB5757"/>
<path d="M46.3279 65.0865L47.5637 63.0808L47.933 67.3795C47.933 67.3795 50.9139 77.0102 50.6846 85.4943C50.4553 93.9784 51.8311 113.928 49.9967 114.157C48.1623 114.386 40.3661 114.845 40.3661 113.24C40.3661 111.635 39.9075 68.9846 39.9075 68.9846L46.3279 65.0865Z" fill="#0D0D0D"/>
<path d="M54.672 63.0808L57.793 65.5451L64.672 68.0674C64.672 68.0674 64.672 97.4179 66.0478 104.297C67.4236 111.176 69.9459 111.864 66.7357 112.093C63.5255 112.323 63.7548 111.176 63.7548 111.176C63.7548 111.176 54.3535 81.8255 54.8121 74.4878C55.2707 67.1502 54.2134 63.0808 54.672 63.0808Z" fill="#0D0D0D"/>
<path d="M46.0198 56.4897C46.0198 56.4897 46.4874 55.6686 46.3787 52.9255C46.27 50.1823 50.4471 51.7338 53.9375 51.4721C57.4279 51.2105 56.6891 56.0519 56.6891 56.0519C56.6891 56.0519 56.9409 55.7641 57.48 53.4275C58.0191 51.0908 56.795 48.7623 56.795 48.7623C56.4345 46.307 54.4916 47.0939 54.4916 47.0939C55.4273 47.4582 55.2476 48.2371 55.2476 48.2371C54.4555 46.8484 52.5126 47.6354 52.5126 47.6354C49.9212 46.0092 47.295 48.1506 47.295 48.1506C44.1645 48.8611 46.0004 51.3506 46.0004 51.3506C42.8522 52.9416 46.0198 56.4897 46.0198 56.4897Z" fill="#2F2E41"/>
<path d="M40.3737 109.924C40.607 109.677 40.7833 109.383 40.8904 109.061C40.9974 108.739 41.0326 108.397 40.9933 108.06C40.9541 107.723 40.8414 107.399 40.6632 107.11C40.4851 106.821 40.2457 106.575 39.9621 106.388L40.9534 101.177L37.9334 99.802L36.6368 107.181C36.3553 107.678 36.2661 108.262 36.3859 108.82C36.5057 109.379 36.8263 109.874 37.287 110.212C37.7476 110.551 38.3162 110.708 38.8851 110.655C39.454 110.602 39.9837 110.342 40.3737 109.924V109.924Z" fill="#FFB7B7"/>
<path d="M41.054 68.9846L40.4452 68.6582C40.4452 68.6582 37.1559 69.9019 37.3852 70.8191C37.6145 71.7363 35.5508 103.838 36.2387 104.985C36.9266 106.131 42.4298 105.214 42.4298 105.214L41.054 68.9846Z" fill="#0D0D0D"/>
<path d="M67.2309 107.763C66.9658 107.551 66.7504 107.283 66.5998 106.979C66.4492 106.675 66.3671 106.342 66.3594 106.002C66.3516 105.663 66.4183 105.326 66.5548 105.016C66.6913 104.705 66.8943 104.428 67.1494 104.204L65.4465 99.1799L68.2473 97.4004L70.5524 104.529C70.8999 104.983 71.069 105.548 71.0277 106.118C70.9863 106.688 70.7373 107.223 70.3279 107.621C69.9185 108.02 69.3771 108.254 68.8063 108.28C68.2355 108.306 67.675 108.122 67.2309 107.763V107.763Z" fill="#FFB7B7"/>
<path d="M64.5423 103.383C64.5423 103.383 70.1195 103.529 70.6421 102.299C71.1648 101.068 64.6792 69.5603 64.7794 68.6202C64.8796 67.6801 61.4499 66.9036 61.4499 66.9036L60.8921 67.3111L64.5423 103.383Z" fill="#0D0D0D"/>
<path d="M101.23 159H0.265C0.194718 159 0.127314 158.972 0.0776165 158.922C0.0279194 158.873 0 158.805 0 158.735C0 158.665 0.0279194 158.597 0.0776165 158.548C0.127314 158.498 0.194718 158.47 0.265 158.47H101.23C101.3 158.47 101.368 158.498 101.417 158.548C101.467 158.597 101.495 158.665 101.495 158.735C101.495 158.805 101.467 158.873 101.417 158.922C101.368 158.972 101.3 159 101.23 159Z" fill="#CBCBCB"/>
<path d="M204.872 81.6199H111.682V23.6033H204.872V81.6199ZM113.85 79.4516H202.703V25.7715H113.85V79.4516Z" fill="#E5E5E5"/>
<path d="M203.787 24.6875H112.766V80.5358H203.787V24.6875Z" fill="white"/>
<path d="M203.787 38.842V35.4129H191.161V24.6875H187.731V35.4129H165.252V24.6875H161.823V35.4129H127.151V24.6875H123.722V35.4129H112.766V38.842H123.722V52.1773H112.766V55.6064H123.722V69.8942H112.766V73.3233H142.201V80.5358H145.63V73.3233H161.823V80.5358H165.252V73.3233H203.787V69.8942H165.252V55.6064H203.787V52.1773H191.161V38.842L203.787 38.842ZM161.823 38.842V43.0331H127.151V38.842H161.823ZM127.151 46.4622H161.823V52.1773H127.151V46.4622ZM127.151 69.8942V55.6064H142.201V69.8942L127.151 69.8942ZM161.823 69.8942H145.63V55.6064H161.823V69.8942ZM187.731 52.1773H165.252V38.842H187.731V52.1773Z" fill="#E6E6E6"/>
<path d="M180.08 16.4426C180.08 25.5235 163.637 45.7532 163.637 45.7532C163.637 45.7532 147.195 25.5235 147.195 16.4426C147.195 12.0817 148.927 7.89949 152.011 4.81591C155.094 1.73234 159.277 0 163.637 0C167.998 0 172.18 1.73234 175.264 4.81591C178.348 7.89949 180.08 12.0817 180.08 16.4426Z" fill="#EB5757"/>
<path d="M171.154 15.7275C171.154 17.2142 170.713 18.6674 169.888 19.9035C169.062 21.1396 167.888 22.1031 166.514 22.672C165.141 23.2409 163.629 23.3897 162.171 23.0997C160.713 22.8097 159.374 22.0938 158.323 21.0426C157.271 19.9914 156.556 18.652 156.266 17.194C155.975 15.7359 156.124 14.2245 156.693 12.8511C157.262 11.4776 158.226 10.3036 159.462 9.47771C160.698 8.65178 162.151 8.21094 163.638 8.21094C164.625 8.21049 165.603 8.4046 166.515 8.78218C167.427 9.15977 168.256 9.71342 168.954 10.4115C169.652 11.1096 170.205 11.9384 170.583 12.8505C170.961 13.7627 171.155 14.7403 171.154 15.7275Z" fill="white"/>
<path d="M163.638 57.6205C166.086 57.6205 168.07 55.6361 168.07 53.1882C168.07 50.7403 166.086 48.7559 163.638 48.7559C161.19 48.7559 159.205 50.7403 159.205 53.1882C159.205 55.6361 161.19 57.6205 163.638 57.6205Z" fill="#EB5757"/>
</g>
<defs>
<clipPath id="clip0_546_7463">
<rect width="204.871" height="159" fill="white"/>
</clipPath>
</defs>
</svg>
