<svg width="75" height="74" viewBox="0 0 75 74" fill="none" xmlns="http://www.w3.org/2000/svg">
<g clip-path="url(#clip0_546_3353)">
<path d="M47.6128 16.4644H27.4036C26.9431 16.465 26.5015 16.6482 26.1759 16.9738C25.8503 17.2995 25.6671 17.741 25.6665 18.2015V63.1167L25.4349 63.1874L20.4772 64.7056C20.2423 64.7773 19.9885 64.7527 19.7716 64.6374C19.5547 64.5222 19.3924 64.3255 19.3204 64.0907L4.57363 15.9213C4.50186 15.6863 4.52632 15.4325 4.64163 15.2155C4.75694 14.9986 4.95366 14.8363 5.18856 14.7644L12.8283 12.4251L34.9761 5.64583L42.6158 3.30656C42.7321 3.27078 42.8543 3.25827 42.9754 3.26976C43.0965 3.28125 43.2141 3.31651 43.3216 3.37352C43.429 3.43053 43.5242 3.50817 43.6016 3.602C43.679 3.69582 43.7372 3.804 43.7727 3.92033L47.5422 16.2328L47.6128 16.4644Z" fill="#F2F2F2"/>
<path d="M52.0233 16.2339L47.4802 1.3946C47.4046 1.14735 47.2811 0.917411 47.1166 0.717933C46.9521 0.518455 46.7499 0.353343 46.5216 0.232032C46.2933 0.11072 46.0433 0.0355862 45.7859 0.0109255C45.5286 -0.0137352 45.2689 0.0125609 45.0217 0.0883084L34.2807 3.37603L12.134 10.1565L1.39304 13.4453C0.894066 13.5986 0.476272 13.9435 0.231359 14.4044C-0.0135543 14.8654 -0.0655773 15.4046 0.086711 15.9039L15.614 66.6187C15.7377 67.0217 15.9873 67.3745 16.3262 67.6252C16.6651 67.8759 17.0754 68.0114 17.497 68.0119C17.6921 68.0119 17.8861 67.9827 18.0725 67.925L25.4354 65.6714L25.6671 65.5996V65.3576L25.4354 65.4282L18.0042 67.7038C17.5638 67.8381 17.0881 67.7922 16.6814 67.5761C16.2748 67.3601 15.9705 66.9917 15.8352 66.5515L0.309106 15.8356C0.242064 15.6175 0.218699 15.3883 0.240346 15.1612C0.261993 14.9341 0.328226 14.7135 0.435256 14.512C0.542286 14.3105 0.68801 14.1322 0.864081 13.9871C1.04015 13.842 1.24311 13.7331 1.46134 13.6665L12.2023 10.3777L34.349 3.59838L45.09 0.3095C45.2555 0.258985 45.4276 0.233229 45.6007 0.233067C45.9721 0.233901 46.3335 0.353639 46.6319 0.574743C46.9303 0.795847 47.1501 1.1067 47.2591 1.46177L51.7813 16.2339L51.8531 16.4656H52.094L52.0233 16.2339Z" fill="#3F3D56"/>
<path d="M14.2074 14.8017C13.9842 14.8016 13.7669 14.7299 13.5874 14.5972C13.408 14.4645 13.2757 14.2778 13.2102 14.0644L11.7185 9.19227C11.6785 9.06139 11.6645 8.9239 11.6776 8.78765C11.6907 8.6514 11.7304 8.51906 11.7947 8.39818C11.8589 8.27731 11.9463 8.17026 12.0519 8.08317C12.1574 7.99607 12.2792 7.93063 12.41 7.89058L32.7848 1.65285C33.0491 1.57219 33.3346 1.5997 33.5787 1.72933C33.8227 1.85896 34.0054 2.08013 34.0865 2.34429L35.5781 7.2165C35.6588 7.48081 35.6312 7.7663 35.5016 8.01034C35.372 8.25438 35.1508 8.43704 34.8867 8.51824L14.5119 14.756C14.4132 14.7863 14.3106 14.8017 14.2074 14.8017Z" fill="#0D0D0D"/>
<path d="M22.0212 5.20645C23.3003 5.20645 24.3373 4.16949 24.3373 2.89033C24.3373 1.61118 23.3003 0.574219 22.0212 0.574219C20.742 0.574219 19.7051 1.61118 19.7051 2.89033C19.7051 4.16949 20.742 5.20645 22.0212 5.20645Z" fill="#0D0D0D"/>
<path d="M22.0203 4.3571C22.8303 4.3571 23.487 3.70046 23.487 2.89046C23.487 2.08046 22.8303 1.42383 22.0203 1.42383C21.2103 1.42383 20.5537 2.08046 20.5537 2.89046C20.5537 3.70046 21.2103 4.3571 22.0203 4.3571Z" fill="white"/>
<path d="M69.7889 67.4191H30.6465C30.3855 67.4188 30.1353 67.315 29.9508 67.1305C29.7663 66.9459 29.6625 66.6957 29.6622 66.4347V19.5334C29.6625 19.2724 29.7663 19.0222 29.9508 18.8377C30.1353 18.6532 30.3855 18.5494 30.6465 18.5491H69.7889C70.0498 18.5494 70.3 18.6532 70.4846 18.8377C70.6691 19.0222 70.7729 19.2724 70.7732 19.5334V66.4347C70.7729 66.6957 70.6691 66.9459 70.4846 67.1304C70.3 67.315 70.0498 67.4188 69.7889 67.4191Z" fill="#E6E6E6"/>
<path d="M51.7814 16.2324H27.4042C26.8823 16.2332 26.382 16.4408 26.013 16.8099C25.6439 17.1789 25.4363 17.6792 25.4355 18.2011V65.4267L25.6672 65.3561V18.2011C25.6677 17.7406 25.8509 17.2991 26.1766 16.9734C26.5022 16.6478 26.9437 16.4646 27.4042 16.464H51.8532L51.7814 16.2324ZM73.0317 16.2324H27.4042C26.8823 16.2332 26.382 16.4408 26.013 16.8099C25.6439 17.1789 25.4363 17.6792 25.4355 18.2011V71.2402C25.4363 71.7621 25.6439 72.2624 26.013 72.6314C26.382 73.0005 26.8823 73.2081 27.4042 73.2089H73.0317C73.5536 73.2081 74.0539 73.0005 74.423 72.6314C74.792 72.2624 74.9997 71.7621 75.0004 71.2402V18.2011C74.9997 17.6792 74.792 17.1789 74.423 16.8099C74.0539 16.4408 73.5536 16.2332 73.0317 16.2324ZM74.7688 71.2402C74.7682 71.7007 74.585 72.1422 74.2594 72.4678C73.9338 72.7935 73.4922 72.9767 73.0317 72.9772H27.4042C26.9437 72.9767 26.5022 72.7935 26.1766 72.4678C25.8509 72.1422 25.6677 71.7007 25.6672 71.2402V18.2011C25.6677 17.7406 25.8509 17.2991 26.1766 16.9734C26.5022 16.6478 26.9437 16.4646 27.4042 16.464H73.0317C73.4922 16.4646 73.9338 16.6478 74.2594 16.9734C74.585 17.2991 74.7682 17.7406 74.7688 18.2011V71.2402Z" fill="#3F3D56"/>
<path d="M60.872 21.3284H39.5637C39.2874 21.3281 39.0225 21.2182 38.8271 21.0228C38.6317 20.8274 38.5218 20.5625 38.5215 20.2861V15.1907C38.5218 14.9144 38.6317 14.6494 38.8271 14.454C39.0225 14.2587 39.2874 14.1487 39.5637 14.1484H60.872C61.1483 14.1487 61.4132 14.2587 61.6086 14.454C61.804 14.6494 61.9139 14.9144 61.9142 15.1907V20.2861C61.9139 20.5625 61.804 20.8274 61.6086 21.0228C61.4132 21.2182 61.1483 21.3281 60.872 21.3284Z" fill="#0D0D0D"/>
<path d="M50.2175 14.4955C51.4966 14.4955 52.5336 13.4586 52.5336 12.1794C52.5336 10.9002 51.4966 9.86328 50.2175 9.86328C48.9383 9.86328 47.9014 10.9002 47.9014 12.1794C47.9014 13.4586 48.9383 14.4955 50.2175 14.4955Z" fill="#0D0D0D"/>
<path d="M50.2174 13.591C50.9965 13.591 51.6281 12.9594 51.6281 12.1803C51.6281 11.4011 50.9965 10.7695 50.2174 10.7695C49.4382 10.7695 48.8066 11.4011 48.8066 12.1803C48.8066 12.9594 49.4382 13.591 50.2174 13.591Z" fill="white"/>
</g>
<defs>
<clipPath id="clip0_546_3353">
<rect width="75" height="73.2094" fill="white"/>
</clipPath>
</defs>
</svg>
