<svg width="75" height="74" viewBox="0 0 75 74" fill="none" xmlns="http://www.w3.org/2000/svg">
<g clip-path="url(#clip0_546_5086)">
<path d="M47.6131 16.4645H27.4038C26.9433 16.4651 26.5018 16.6483 26.1762 16.9739C25.8505 17.2996 25.6673 17.7411 25.6668 18.2016V63.1169L25.4351 63.1875L20.4775 64.7057C20.2425 64.7774 19.9888 64.7529 19.7719 64.6376C19.555 64.5223 19.3927 64.3256 19.3206 64.0908L4.57388 15.9214C4.50212 15.6864 4.52658 15.4326 4.64188 15.2157C4.75719 14.9987 4.95391 14.8365 5.18882 14.7645L12.8285 12.4252L34.9764 5.64596L42.6161 3.30668C42.7323 3.2709 42.8545 3.25839 42.9756 3.26988C43.0967 3.28137 43.2144 3.31663 43.3218 3.37364C43.4293 3.43065 43.5244 3.50829 43.6019 3.60212C43.6793 3.69595 43.7374 3.80412 43.773 3.92045L47.5424 16.2329L47.6131 16.4645Z" fill="#F2F2F2"/>
<path d="M52.0233 16.2333L47.4802 1.39399C47.4047 1.14674 47.2811 0.916801 47.1166 0.717323C46.9521 0.517845 46.7499 0.352733 46.5216 0.231422C46.2933 0.11011 46.0433 0.0349759 45.786 0.0103152C45.5286 -0.0143455 45.2689 0.0119506 45.0217 0.0876981L34.2807 3.37542L12.134 10.1559L1.39306 13.4447C0.894089 13.5979 0.476295 13.9429 0.231382 14.4038C-0.0135314 14.8648 -0.0655544 15.404 0.0867339 15.9033L15.614 66.6181C15.7377 67.0211 15.9873 67.3739 16.3262 67.6246C16.6651 67.8753 17.0754 68.0108 17.497 68.0112C17.6921 68.0113 17.8861 67.9821 18.0725 67.9244L25.4355 65.6708L25.6671 65.599V65.357L25.4355 65.4276L18.0042 67.7032C17.5638 67.8375 17.0881 67.7915 16.6815 67.5755C16.2748 67.3595 15.9705 66.991 15.8352 66.5509L0.309128 15.835C0.242087 15.6169 0.218722 15.3877 0.240369 15.1606C0.262016 14.9335 0.328249 14.7129 0.435279 14.5114C0.542309 14.3099 0.688033 14.1315 0.864104 13.9865C1.04017 13.8414 1.24313 13.7325 1.46136 13.6659L12.2023 10.377L34.3491 3.59777L45.09 0.308889C45.2556 0.258375 45.4277 0.232618 45.6007 0.232457C45.9721 0.233291 46.3335 0.353029 46.6319 0.574133C46.9303 0.795237 47.1501 1.10609 47.2591 1.46116L51.7813 16.2333L51.8531 16.4649H52.094L52.0233 16.2333Z" fill="#3F3D56"/>
<path d="M14.2071 14.8023C13.9839 14.8022 13.7667 14.7305 13.5872 14.5978C13.4077 14.4651 13.2755 14.2784 13.2099 14.065L11.7183 9.19288C11.6782 9.062 11.6643 8.92451 11.6773 8.78826C11.6904 8.65201 11.7302 8.51967 11.7944 8.39879C11.8586 8.27792 11.946 8.17088 12.0516 8.08378C12.1572 7.99668 12.2789 7.93124 12.4098 7.89119L32.7845 1.65346C33.0488 1.5728 33.3344 1.60031 33.5784 1.72994C33.8225 1.85958 34.0051 2.08074 34.0863 2.3449L35.5779 7.21711C35.6585 7.48142 35.631 7.76691 35.5013 8.01095C35.3717 8.25499 35.1506 8.43765 34.8864 8.51885L14.5116 14.7566C14.413 14.7869 14.3103 14.8023 14.2071 14.8023Z" fill="#0D0D0D"/>
<path d="M22.0209 5.20596C23.3 5.20596 24.337 4.169 24.337 2.88985C24.337 1.61069 23.3 0.57373 22.0209 0.57373C20.7417 0.57373 19.7048 1.61069 19.7048 2.88985C19.7048 4.169 20.7417 5.20596 22.0209 5.20596Z" fill="#0D0D0D"/>
<path d="M22.0208 4.35649C22.8308 4.35649 23.4874 3.69985 23.4874 2.88985C23.4874 2.07985 22.8308 1.42322 22.0208 1.42322C21.2108 1.42322 20.5542 2.07985 20.5542 2.88985C20.5542 3.69985 21.2108 4.35649 22.0208 4.35649Z" fill="white"/>
<path d="M69.7888 67.4191H30.6465C30.3855 67.4188 30.1353 67.315 29.9508 67.1305C29.7663 66.9459 29.6625 66.6957 29.6622 66.4347V19.5334C29.6624 19.2724 29.7662 19.0222 29.9508 18.8377C30.1353 18.6532 30.3855 18.5494 30.6465 18.5491H69.7888C70.0498 18.5494 70.3 18.6532 70.4845 18.8377C70.6691 19.0222 70.7729 19.2724 70.7732 19.5334V66.4347C70.7729 66.6957 70.6691 66.9459 70.4845 67.1304C70.3 67.315 70.0498 67.4188 69.7888 67.4191Z" fill="#E6E6E6"/>
<path d="M51.7809 16.2329H27.4038C26.8819 16.2336 26.3816 16.4413 26.0125 16.8103C25.6435 17.1794 25.4358 17.6797 25.4351 18.2016V65.4272L25.6667 65.3566V18.2016C25.6673 17.7411 25.8505 17.2996 26.1761 16.9739C26.5018 16.6483 26.9433 16.4651 27.4038 16.4645H51.8527L51.7809 16.2329ZM73.0313 16.2329H27.4038C26.8819 16.2336 26.3816 16.4413 26.0125 16.8103C25.6435 17.1794 25.4358 17.6797 25.4351 18.2016V71.2406C25.4358 71.7626 25.6435 72.2629 26.0125 72.6319C26.3816 73.001 26.8819 73.2086 27.4038 73.2093H73.0313C73.5532 73.2086 74.0535 73.001 74.4225 72.6319C74.7916 72.2629 74.9992 71.7626 75 71.2406V18.2016C74.9992 17.6797 74.7916 17.1794 74.4225 16.8103C74.0535 16.4413 73.5532 16.2336 73.0313 16.2329ZM74.7683 71.2406C74.7678 71.7012 74.5846 72.1427 74.2589 72.4683C73.9333 72.794 73.4918 72.9772 73.0313 72.9777H27.4038C26.9433 72.9772 26.5018 72.794 26.1761 72.4683C25.8505 72.1427 25.6673 71.7012 25.6667 71.2406V18.2016C25.6673 17.7411 25.8505 17.2996 26.1761 16.9739C26.5018 16.6483 26.9433 16.4651 27.4038 16.4645H73.0313C73.4918 16.4651 73.9333 16.6483 74.2589 16.9739C74.5846 17.2996 74.7678 17.7411 74.7683 18.2016V71.2406Z" fill="#3F3D56"/>
<path d="M60.8717 21.3284H39.5634C39.2871 21.3281 39.0222 21.2182 38.8268 21.0228C38.6314 20.8274 38.5215 20.5625 38.5212 20.2861V15.1907C38.5215 14.9144 38.6314 14.6494 38.8268 14.454C39.0222 14.2587 39.2871 14.1487 39.5634 14.1484H60.8717C61.148 14.1487 61.4129 14.2587 61.6083 14.454C61.8037 14.6494 61.9136 14.9144 61.9139 15.1907V20.2861C61.9136 20.5625 61.8037 20.8274 61.6083 21.0228C61.4129 21.2182 61.148 21.3281 60.8717 21.3284Z" fill="#0D0D0D"/>
<path d="M50.2174 14.4958C51.4966 14.4958 52.5335 13.4588 52.5335 12.1796C52.5335 10.9005 51.4966 9.86353 50.2174 9.86353C48.9383 9.86353 47.9013 10.9005 47.9013 12.1796C47.9013 13.4588 48.9383 14.4958 50.2174 14.4958Z" fill="#0D0D0D"/>
<path d="M50.2176 13.5905C50.9967 13.5905 51.6283 12.9589 51.6283 12.1798C51.6283 11.4006 50.9967 10.769 50.2176 10.769C49.4385 10.769 48.8069 11.4006 48.8069 12.1798C48.8069 12.9589 49.4385 13.5905 50.2176 13.5905Z" fill="white"/>
</g>
<defs>
<clipPath id="clip0_546_5086">
<rect width="75" height="73.2094" fill="white"/>
</clipPath>
</defs>
</svg>
