<svg width="19" height="20" viewBox="0 0 19 20" fill="none" xmlns="http://www.w3.org/2000/svg">
<path d="M17.3334 14.0999V16.5999C17.3344 16.832 17.2868 17.0617 17.1939 17.2744C17.1009 17.487 16.9645 17.6779 16.7935 17.8348C16.6225 17.9917 16.4206 18.1112 16.2007 18.1855C15.9809 18.2599 15.7479 18.2875 15.5168 18.2666C12.9525 17.988 10.4893 17.1117 8.32511 15.7083C6.31163 14.4288 4.60455 12.7217 3.32511 10.7083C1.91676 8.53426 1.04031 6.05908 0.766774 3.48325C0.745949 3.25281 0.773336 3.02055 0.847191 2.80127C0.921045 2.58199 1.03975 2.38049 1.19575 2.2096C1.35174 2.03871 1.54161 1.90218 1.75327 1.80869C1.96492 1.7152 2.19372 1.6668 2.42511 1.66658H4.92511C5.32953 1.6626 5.7216 1.80582 6.02824 2.06953C6.33488 2.33324 6.53517 2.69946 6.59177 3.09992C6.69729 3.89997 6.89298 4.68552 7.17511 5.44158C7.28723 5.73985 7.31149 6.06401 7.24503 6.37565C7.17857 6.68729 7.02416 6.97334 6.80011 7.19992L5.74177 8.25825C6.92807 10.3445 8.65549 12.072 10.7418 13.2583L11.8001 12.1999C12.0267 11.9759 12.3127 11.8215 12.6244 11.755C12.936 11.6885 13.2602 11.7128 13.5584 11.8249C14.3145 12.107 15.1001 12.3027 15.9001 12.4083C16.3049 12.4654 16.6746 12.6693 16.9389 12.9812C17.2032 13.2931 17.3436 13.6912 17.3334 14.0999Z" stroke="#828282" stroke-width="1.5" stroke-linecap="round" stroke-linejoin="round"/>
</svg>
