<svg width="24" height="25" viewBox="0 0 24 25" fill="none" xmlns="http://www.w3.org/2000/svg">
<path d="M16.75 8.25H7.25C6.84 8.25 6.5 7.91 6.5 7.5V5.5C6.5 2.94 7.69 1.75 10.25 1.75H13.75C16.31 1.75 17.5 2.94 17.5 5.5V7.5C17.5 7.91 17.16 8.25 16.75 8.25ZM8 6.75H16V5.5C16 3.8 15.45 3.25 13.75 3.25H10.25C8.55 3.25 8 3.8 8 5.5V6.75Z" fill="#BDBDBD"/>
<path d="M13 23.25H11C8.58 23.25 7.25 21.92 7.25 19.5V15.5C7.25 15.09 7.59 14.75 8 14.75H16C16.41 14.75 16.75 15.09 16.75 15.5V19.5C16.75 21.92 15.42 23.25 13 23.25ZM8.75 16.25V19.5C8.75 21.08 9.42 21.75 11 21.75H13C14.58 21.75 15.25 21.08 15.25 19.5V16.25H8.75Z" fill="#BDBDBD"/>
<path d="M18 19.25H16C15.59 19.25 15.25 18.91 15.25 18.5V16.25H8.75V18.5C8.75 18.91 8.41 19.25 8 19.25H6C3.58 19.25 2.25 17.92 2.25 15.5V10.5C2.25 8.08 3.58 6.75 6 6.75H18C20.42 6.75 21.75 8.08 21.75 10.5V15.5C21.75 17.92 20.42 19.25 18 19.25ZM16.75 17.75H18C19.58 17.75 20.25 17.08 20.25 15.5V10.5C20.25 8.92 19.58 8.25 18 8.25H6C4.42 8.25 3.75 8.92 3.75 10.5V15.5C3.75 17.08 4.42 17.75 6 17.75H7.25V15.5C7.25 15.09 7.59 14.75 8 14.75H16C16.41 14.75 16.75 15.09 16.75 15.5V17.75Z" fill="#BDBDBD"/>
<path d="M17 16.25H7C6.59 16.25 6.25 15.91 6.25 15.5C6.25 15.09 6.59 14.75 7 14.75H17C17.41 14.75 17.75 15.09 17.75 15.5C17.75 15.91 17.41 16.25 17 16.25Z" fill="#BDBDBD"/>
<path d="M10 12.25H7C6.59 12.25 6.25 11.91 6.25 11.5C6.25 11.09 6.59 10.75 7 10.75H10C10.41 10.75 10.75 11.09 10.75 11.5C10.75 11.91 10.41 12.25 10 12.25Z" fill="#BDBDBD"/>
</svg>
