<svg width="34" height="26" viewBox="0 0 34 26" fill="none" xmlns="http://www.w3.org/2000/svg">
<path d="M0.291193 26V18.7557C0.291193 16.6723 0.681818 14.5062 1.46307 12.2571C2.26799 9.98437 3.35701 7.84185 4.73011 5.82954C6.12689 3.79356 7.68939 2.07718 9.41761 0.680394L15.3835 4.55113C13.9867 6.65814 12.8149 8.85985 11.8679 11.1562C10.9446 13.429 10.4948 15.9384 10.5185 18.6847V26H0.291193ZM18.2955 26V18.7557C18.2955 16.6723 18.6861 14.5062 19.4673 12.2571C20.2723 9.98437 21.3613 7.84185 22.7344 5.82954C24.1312 3.79356 25.6937 2.07718 27.4219 0.680394L33.3878 4.55113C31.991 6.65814 30.8191 8.85985 29.8722 11.1562C28.9489 13.429 28.4991 15.9384 28.5227 18.6847V26H18.2955Z" fill="#0D0D0D"/>
</svg>
