<svg width="489" height="415" viewBox="0 0 489 415" fill="none" xmlns="http://www.w3.org/2000/svg">
<g filter="url(#filter0_df_546_4433)">
<path d="M468.943 389.274C451.253 385.192 431.015 363.302 418.654 350.94C401.647 333.934 384.729 315.437 369.123 297.14C364.655 291.901 359.814 287.721 354.511 283.381C351.22 280.689 345.951 279.334 343.314 276.17C337.567 269.274 334.026 260.063 326.235 255.105C318.379 250.106 310.771 241.944 304.98 234.705C292.305 218.861 303.82 208.286 312.761 190.203C318.797 177.994 319.459 168.508 316.556 155.285C313.879 143.088 315.697 130.284 313.899 117.9C312.012 104.899 304.491 99.2669 293.594 93.0398C285.318 88.3105 277.396 82.8255 268.734 78.8069C262.583 75.9534 255.642 74.2545 250.326 69.8876C238.111 59.8539 224.279 49.4015 210.663 41.232C191.754 29.8866 173.059 16.7596 152.213 9.25532C147.005 7.38017 111.982 2.92742 111.982 9.3502C111.982 24.4674 96.1317 34.1568 90.4425 48.0638C81.7496 69.313 83.8422 91.282 77.0635 112.586C75.166 118.55 68.2213 138.087 70.9908 142.76C77.3992 153.574 80.6213 165.312 88.0703 175.781C91.7811 180.996 97.184 184.366 100.785 189.634C105.74 196.883 109.851 204.718 113.69 212.596C117.246 219.896 102.089 228.466 96.4203 232.902C85.3754 241.546 71.5486 247.71 59.0352 253.967C52.2457 257.361 41.286 262.927 37.2113 269.718C35.455 272.645 33.5872 274.842 30 274.842" stroke="#2D9CDB" stroke-width="4" stroke-linecap="round"/>
</g>
<path d="M468.943 389.274C451.253 385.192 431.015 363.302 418.654 350.94C401.647 333.934 384.729 315.437 369.123 297.14C364.655 291.901 359.814 287.721 354.511 283.381C351.22 280.689 345.951 279.334 343.314 276.17C337.567 269.274 334.026 260.063 326.235 255.105C318.379 250.106 310.771 241.944 304.98 234.705C292.305 218.861 303.82 208.286 312.761 190.203C318.797 177.994 319.459 168.508 316.556 155.285C313.879 143.088 315.697 130.284 313.899 117.9C312.012 104.899 304.491 99.2669 293.594 93.0398C285.318 88.3105 277.396 82.8255 268.734 78.8069C262.583 75.9534 255.642 74.2545 250.326 69.8876C238.111 59.8539 224.279 49.4015 210.663 41.232C191.754 29.8866 173.059 16.7596 152.213 9.25532C147.005 7.38017 111.982 2.92742 111.982 9.3502C111.982 24.4674 96.1317 34.1568 90.4425 48.0638C81.7496 69.313 83.8422 91.282 77.0635 112.586C75.166 118.55 68.2213 138.087 70.9908 142.76C77.3992 153.574 80.6213 165.312 88.0703 175.781C91.7811 180.996 97.184 184.366 100.785 189.634C105.74 196.883 109.851 204.718 113.69 212.596C117.246 219.896 102.089 228.466 96.4203 232.902C85.3754 241.546 71.5486 247.71 59.0352 253.967C52.2457 257.361 41.286 262.927 37.2113 269.718C35.455 272.645 33.5872 274.842 30 274.842" stroke="#2D9CDB" stroke-width="2" stroke-linecap="round"/>
<g filter="url(#filter1_d_546_4433)">
<circle cx="473" cy="391" r="9" fill="#D9D9D9" stroke="white" stroke-width="2"/>
<g filter="url(#filter2_f_546_4433)">
<circle cx="473" cy="391" r="7" fill="#219653"/>
<circle cx="473" cy="391" r="6.65" stroke="#219653" stroke-width="0.7"/>
</g>
</g>
<g filter="url(#filter3_d_546_4433)">
<path d="M32 265C32 272 23 278 23 278C23 278 14 272 14 265C14 262.613 14.9482 260.324 16.636 258.636C18.3239 256.948 20.6131 256 23 256C25.3869 256 27.6761 256.948 29.364 258.636C31.0518 260.324 32 262.613 32 265Z" fill="#EB5757" stroke="#EB5757" stroke-width="2.5" stroke-linecap="round" stroke-linejoin="round"/>
<path d="M23 268C24.6569 268 26 266.657 26 265C26 263.343 24.6569 262 23 262C21.3431 262 20 263.343 20 265C20 266.657 21.3431 268 23 268Z" stroke="white" stroke-width="2.5" stroke-linecap="round" stroke-linejoin="round"/>
</g>
<path d="M426.123 346.198L424.889 345.012C425.725 344.413 426.722 344.137 427.709 344.185L427.362 345.849C426.933 345.868 426.508 345.984 426.123 346.198Z" fill="#333333"/>
<path d="M425.543 350.672C426.659 351.744 428.438 351.71 429.511 350.595C430.583 349.479 430.548 347.7 429.433 346.627C429.218 346.42 428.978 346.255 428.723 346.131L429.07 344.467C429.619 344.674 430.137 344.994 430.587 345.427C432.367 347.139 432.423 349.969 430.711 351.749C428.999 353.529 426.169 353.584 424.389 351.873C422.769 350.315 422.578 347.831 423.847 346.055L425.069 347.23C424.427 348.323 424.59 349.756 425.543 350.672Z" fill="#333333"/>
<path d="M414.969 330.409C415.251 330.68 415.489 330.979 415.684 331.297L414.088 331.914C414.005 331.808 413.915 331.706 413.815 331.61C412.7 330.537 410.92 330.572 409.848 331.687C408.775 332.803 408.81 334.582 409.925 335.655C411.04 336.727 412.82 336.692 413.892 335.577C414.47 334.977 414.726 334.184 414.665 333.412L416.261 332.795C416.522 334.17 416.137 335.646 415.093 336.731C413.381 338.511 410.551 338.567 408.771 336.855C406.991 335.143 406.936 332.313 408.647 330.533C410.359 328.753 413.189 328.698 414.969 330.409Z" fill="#333333"/>
<path d="M411.624 334.187L411.315 333.387L416.65 331.325L423.423 328.706C423.618 328.63 423.838 328.706 423.945 328.884L425.212 330.984L424.478 331.427L423.397 329.636L421.908 330.211C422.624 330.922 426.416 334.861 425.465 337.535L428.383 340.341L430.318 340.928C430.769 341.065 431.188 341.291 431.551 341.593L433.794 343.46C434.062 343.683 434.169 344.046 434.064 344.379L433.989 344.619C433.916 344.852 433.753 345.048 433.536 345.162L433.511 345.175L433.736 348.424L433.254 348.457L433.039 345.343L429.437 342.701L429.391 342.667L429.164 342.733L428.054 348.056L427.316 347.345L428.22 343.008L427.937 343.09L424.063 344.218L423.775 344.302L428.784 349.119L428.123 349.806L422.718 344.609L422.481 344.678C422.463 344.683 422.446 344.687 422.428 344.692C421.683 344.889 420.888 344.685 420.33 344.149L416.323 340.296L418.377 333.955L420.754 336.241L420.938 336.05L418.467 333.675L418.608 333.242L422.255 336.749L422.438 336.559L418.613 332.881L417.909 331.757L416.931 332.135L411.624 334.187Z" fill="#333333"/>
<path d="M417.587 329.571C417.003 329.009 419.037 326.894 419.621 327.456C420.205 328.018 420.224 328.946 419.662 329.53C419.1 330.114 418.171 330.133 417.587 329.571Z" fill="#333333"/>
<defs>
<filter id="filter0_df_546_4433" x="24" y="0" width="450.944" height="399.275" filterUnits="userSpaceOnUse" color-interpolation-filters="sRGB">
<feFlood flood-opacity="0" result="BackgroundImageFix"/>
<feColorMatrix in="SourceAlpha" type="matrix" values="0 0 0 0 0 0 0 0 0 0 0 0 0 0 0 0 0 0 127 0" result="hardAlpha"/>
<feOffset dy="4"/>
<feGaussianBlur stdDeviation="2"/>
<feComposite in2="hardAlpha" operator="out"/>
<feColorMatrix type="matrix" values="0 0 0 0 0 0 0 0 0 0 0 0 0 0 0 0 0 0 0.25 0"/>
<feBlend mode="normal" in2="BackgroundImageFix" result="effect1_dropShadow_546_4433"/>
<feBlend mode="normal" in="SourceGraphic" in2="effect1_dropShadow_546_4433" result="shape"/>
<feGaussianBlur stdDeviation="2" result="effect2_foregroundBlur_546_4433"/>
</filter>
<filter id="filter1_d_546_4433" x="453" y="379" width="36" height="36" filterUnits="userSpaceOnUse" color-interpolation-filters="sRGB">
<feFlood flood-opacity="0" result="BackgroundImageFix"/>
<feColorMatrix in="SourceAlpha" type="matrix" values="0 0 0 0 0 0 0 0 0 0 0 0 0 0 0 0 0 0 127 0" result="hardAlpha"/>
<feOffset dx="-2" dy="6"/>
<feGaussianBlur stdDeviation="4"/>
<feComposite in2="hardAlpha" operator="out"/>
<feColorMatrix type="matrix" values="0 0 0 0 0 0 0 0 0 0 0 0 0 0 0 0 0 0 0.25 0"/>
<feBlend mode="normal" in2="BackgroundImageFix" result="effect1_dropShadow_546_4433"/>
<feBlend mode="normal" in="SourceGraphic" in2="effect1_dropShadow_546_4433" result="shape"/>
</filter>
<filter id="filter2_f_546_4433" x="464" y="382" width="18" height="18" filterUnits="userSpaceOnUse" color-interpolation-filters="sRGB">
<feFlood flood-opacity="0" result="BackgroundImageFix"/>
<feBlend mode="normal" in="SourceGraphic" in2="BackgroundImageFix" result="shape"/>
<feGaussianBlur stdDeviation="1" result="effect1_foregroundBlur_546_4433"/>
</filter>
<filter id="filter3_d_546_4433" x="0.75" y="250.75" width="40.5" height="44.5" filterUnits="userSpaceOnUse" color-interpolation-filters="sRGB">
<feFlood flood-opacity="0" result="BackgroundImageFix"/>
<feColorMatrix in="SourceAlpha" type="matrix" values="0 0 0 0 0 0 0 0 0 0 0 0 0 0 0 0 0 0 127 0" result="hardAlpha"/>
<feOffset dx="-2" dy="6"/>
<feGaussianBlur stdDeviation="5"/>
<feComposite in2="hardAlpha" operator="out"/>
<feColorMatrix type="matrix" values="0 0 0 0 0 0 0 0 0 0 0 0 0 0 0 0 0 0 0.25 0"/>
<feBlend mode="normal" in2="BackgroundImageFix" result="effect1_dropShadow_546_4433"/>
<feBlend mode="normal" in="SourceGraphic" in2="effect1_dropShadow_546_4433" result="shape"/>
</filter>
</defs>
</svg>
