<svg width="36" height="32" viewBox="0 0 36 32" fill="none" xmlns="http://www.w3.org/2000/svg">
<rect width="36" height="32" rx="8" fill="#F2994A" fill-opacity="0.1"/>
<path d="M25.5 14.3333C25.5 20.1666 18 25.1666 18 25.1666C18 25.1666 10.5 20.1666 10.5 14.3333C10.5 12.3441 11.2902 10.4365 12.6967 9.02995C14.1032 7.62343 16.0109 6.83325 18 6.83325C19.9891 6.83325 21.8968 7.62343 23.3033 9.02995C24.7098 10.4365 25.5 12.3441 25.5 14.3333Z" stroke="#F2994A" stroke-width="1.5" stroke-linecap="round" stroke-linejoin="round"/>
<path d="M18 16.8333C19.3807 16.8333 20.5 15.714 20.5 14.3333C20.5 12.9525 19.3807 11.8333 18 11.8333C16.6193 11.8333 15.5 12.9525 15.5 14.3333C15.5 15.714 16.6193 16.8333 18 16.8333Z" stroke="#F2994A" stroke-width="1.5" stroke-linecap="round" stroke-linejoin="round"/>
</svg>
