<svg width="36" height="36" viewBox="0 0 36 36" fill="none" xmlns="http://www.w3.org/2000/svg">
<circle cx="18" cy="18" r="17.4306" fill="#E4DFDF" stroke="white" stroke-width="1.13889"/>
<path fill-rule="evenodd" clip-rule="evenodd" d="M11.0238 20.8627C11.8926 19.9939 13.0709 19.5059 14.2995 19.5059H21.8873C23.1159 19.5059 24.2942 19.9939 25.163 20.8627C26.0317 21.7315 26.5198 22.9098 26.5198 24.1384V26.0353C26.5198 26.4985 26.1443 26.874 25.6812 26.874C25.218 26.874 24.8425 26.4985 24.8425 26.0353V24.1384C24.8425 23.3546 24.5312 22.6029 23.9769 22.0487C23.4227 21.4945 22.6711 21.1832 21.8873 21.1832H14.2995C13.5157 21.1832 12.7641 21.4945 12.2099 22.0487C11.6556 22.6029 11.3443 23.3546 11.3443 24.1384V26.0353C11.3443 26.4985 10.9688 26.874 10.5056 26.874C10.0425 26.874 9.66699 26.4985 9.66699 26.0353V24.1384C9.66699 22.9098 10.1551 21.7315 11.0238 20.8627Z" fill="#2D2D2D"/>
<path fill-rule="evenodd" clip-rule="evenodd" d="M18.0935 9.80229C16.4613 9.80229 15.1382 11.1254 15.1382 12.7575C15.1382 14.3897 16.4613 15.7128 18.0935 15.7128C19.7256 15.7128 21.0487 14.3897 21.0487 12.7575C21.0487 11.1254 19.7256 9.80229 18.0935 9.80229ZM13.4609 12.7575C13.4609 10.1991 15.535 8.125 18.0935 8.125C20.6519 8.125 22.726 10.1991 22.726 12.7575C22.726 15.316 20.6519 17.3901 18.0935 17.3901C15.535 17.3901 13.4609 15.316 13.4609 12.7575Z" fill="#2D2D2D"/>
</svg>
